<svg
 xmlns="http://www.w3.org/2000/svg"
 xmlns:xlink="http://www.w3.org/1999/xlink"
 width="12px" height="17px">
<path fill-rule="evenodd"  fill="rgb(192, 192, 192)"
 d="M11.154,9.039 L6.512,16.758 C6.423,16.907 6.262,16.998 6.087,17.000 C6.086,17.000 6.085,17.000 6.083,17.000 C5.910,17.000 5.750,16.911 5.658,16.765 L0.896,9.119 C0.310,8.176 -0.000,7.090 -0.000,5.976 C-0.000,2.681 2.692,-0.000 6.000,-0.000 C9.308,-0.000 12.000,2.681 12.000,5.976 C12.000,7.057 11.707,8.116 11.154,9.039 ZM6.000,0.989 C3.243,0.989 0.993,3.230 0.993,5.976 C0.993,6.905 1.258,7.810 1.746,8.594 L6.076,15.545 L10.295,8.527 C10.756,7.759 11.003,6.877 11.003,5.976 C11.003,3.230 8.757,0.989 6.000,0.989 ZM6.000,8.965 C4.324,8.965 3.000,7.614 3.000,5.976 C3.000,4.329 4.346,2.988 6.000,2.988 C7.654,2.988 9.000,4.329 9.000,5.976 C9.000,7.596 7.697,8.965 6.000,8.965 ZM6.000,3.978 C4.897,3.978 3.993,4.878 3.993,5.976 C3.993,7.078 4.891,7.975 6.000,7.975 C7.126,7.975 8.003,7.062 8.003,5.976 C8.003,4.878 7.103,3.978 6.000,3.978 Z"/>
</svg>
