<svg
 xmlns="http://www.w3.org/2000/svg"
 xmlns:xlink="http://www.w3.org/1999/xlink"
 width="14px" height="14px">
<path fill-rule="evenodd"  fill="rgb(192, 192, 192)"
 d="M7.000,14.000 C3.140,14.000 -0.000,10.860 -0.000,7.000 C-0.000,3.140 3.140,-0.000 7.000,-0.000 C10.860,-0.000 14.000,3.140 14.000,7.000 C14.000,10.860 10.860,14.000 7.000,14.000 ZM7.000,1.489 C3.961,1.489 1.489,3.961 1.489,7.000 C1.489,10.038 3.961,12.511 7.000,12.511 C10.039,12.511 12.511,10.038 12.511,7.000 C12.511,3.961 10.039,1.489 7.000,1.489 ZM10.648,7.937 L6.926,7.937 C6.608,7.937 6.350,7.678 6.350,7.360 L6.350,3.001 C6.350,2.683 6.608,2.425 6.926,2.425 C7.244,2.425 7.502,2.683 7.502,3.001 L7.502,6.784 L10.648,6.784 C10.966,6.784 11.225,7.042 11.225,7.360 C11.225,7.678 10.966,7.937 10.648,7.937 Z"/>
</svg>
